<svg id="Layer_1" data-name="Layer 1" xmlns="http://www.w3.org/2000/svg" viewBox="0 0 170.92 38.42"><defs><style>.cls-1{fill:#589fd6;}.cls-2{fill:#1b3764;}</style></defs><path class="cls-1" d="M78.26,37.53A35.62,35.62,0,0,1,36.47,38l2-2.52a33.24,33.24,0,0,0,18.77,5.86,33.35,33.35,0,0,0,19.15-6.11Z" transform="translate(-8.12 -6.13)"/><path class="cls-2" d="M13.31,6.13h10.5c2.87,0,4.72.86,5.56,2.56a5.19,5.19,0,0,1,.32,3.5A6.82,6.82,0,0,1,27.57,16a8.54,8.54,0,0,1-2.26,1.43A6.31,6.31,0,0,1,27.77,19a5,5,0,0,1,.72,4.41,8.45,8.45,0,0,1-2.4,4.27,10.2,10.2,0,0,1-7.63,2.87H8.12ZM19.1,27.75A6.15,6.15,0,0,0,23.81,26a5.58,5.58,0,0,0,1.4-2.69q.57-2.67-1.61-3.63a8.17,8.17,0,0,0-3.23-.52H13.8L12,27.75Zm1.29-11.28a8.18,8.18,0,0,0,3.37-.59,4.34,4.34,0,0,0,2.53-3.29c.35-1.6-.07-2.68-1.24-3.23a8.1,8.1,0,0,0-3.18-.47H16l-1.6,7.58Z" transform="translate(-8.12 -6.13)"/><path class="cls-2" d="M33.38,12.75h2.84l-.65,3.08a9.24,9.24,0,0,1,2.17-2.19,5.49,5.49,0,0,1,3.42-1.29l.29,0,.66.07-.66,3.16c-.18,0-.34-.06-.49-.07h-.48A5.24,5.24,0,0,0,36.7,17a6.42,6.42,0,0,0-1.94,3.36L32.59,30.58h-3Z" transform="translate(-8.12 -6.13)"/><path class="cls-2" d="M56.83,15.55a6.71,6.71,0,0,1,.53,3.15,18.78,18.78,0,0,1-.56,3.92H43.74A6.68,6.68,0,0,0,44.09,27c.58,1.1,1.7,1.64,3.37,1.64a5.84,5.84,0,0,0,4.06-1.54A7,7,0,0,0,53.11,25h2.94a7.89,7.89,0,0,1-1.24,2.18,10,10,0,0,1-1.89,2,9,9,0,0,1-3.76,1.79,10.91,10.91,0,0,1-2.51.27,6,6,0,0,1-5.13-2.42c-1.2-1.62-1.48-3.88-.86-6.78a12.88,12.88,0,0,1,3.81-7,9.54,9.54,0,0,1,6.65-2.68,7,7,0,0,1,3.5.9A4.89,4.89,0,0,1,56.83,15.55Zm-2.61,4.69A7,7,0,0,0,54,17.13C53.53,15.69,52.31,15,50.39,15a5.63,5.63,0,0,0-3.78,1.49,7.24,7.24,0,0,0-2.29,3.78Z" transform="translate(-8.12 -6.13)"/><path class="cls-2" d="M74.76,15.55a6.7,6.7,0,0,1,.54,3.15,19.71,19.71,0,0,1-.57,3.92H61.67A6.68,6.68,0,0,0,62,27c.57,1.1,1.69,1.64,3.37,1.64a5.88,5.88,0,0,0,4.06-1.54A7.08,7.08,0,0,0,71,25H74a7.89,7.89,0,0,1-1.24,2.18,10,10,0,0,1-1.89,2,9,9,0,0,1-3.76,1.79,10.91,10.91,0,0,1-2.51.27,6,6,0,0,1-5.13-2.42q-1.79-2.43-.86-6.78a12.88,12.88,0,0,1,3.81-7,9.55,9.55,0,0,1,6.66-2.68,7,7,0,0,1,3.49.9A4.85,4.85,0,0,1,74.76,15.55Zm-2.61,4.69A6.89,6.89,0,0,0,72,17.13C71.46,15.69,70.24,15,68.32,15a5.59,5.59,0,0,0-3.77,1.49,7.19,7.19,0,0,0-2.3,3.78Z" transform="translate(-8.12 -6.13)"/><path class="cls-2" d="M74.87,28.21,88.15,15.43H78.37l.56-2.68H92.75l-.52,2.45L79,27.9H89.85l-.57,2.68H74.37Z" transform="translate(-8.12 -6.13)"/><path class="cls-2" d="M108.72,15.55a6.83,6.83,0,0,1,.53,3.15,19.71,19.71,0,0,1-.57,3.92H95.62A6.68,6.68,0,0,0,96,27c.57,1.1,1.69,1.64,3.37,1.64a5.88,5.88,0,0,0,4.06-1.54A7.08,7.08,0,0,0,105,25h2.94a7.89,7.89,0,0,1-1.24,2.18,10,10,0,0,1-1.89,2A9,9,0,0,1,101,30.94a10.91,10.91,0,0,1-2.51.27,6,6,0,0,1-5.12-2.42q-1.8-2.43-.87-6.78a12.88,12.88,0,0,1,3.81-7A9.55,9.55,0,0,1,103,12.35a7,7,0,0,1,3.49.9A4.92,4.92,0,0,1,108.72,15.55Zm-2.62,4.69a6.89,6.89,0,0,0-.18-3.11c-.51-1.44-1.73-2.16-3.65-2.16a5.59,5.59,0,0,0-3.77,1.49,7.19,7.19,0,0,0-2.3,3.78Z" transform="translate(-8.12 -6.13)"/><path class="cls-2" d="M114.82,12.75l.45,14.05,6.45-14h3.36l.54,14,6.6-14h3l-9,17.83h-3.12l-.7-13.8L116,30.58H112.9l-1.36-17.83Z" transform="translate(-8.12 -6.13)"/><path class="cls-2" d="M145.08,19.78a2.14,2.14,0,0,0,1.58-.87,3,3,0,0,0,.43-1.15,2,2,0,0,0-.61-2.22,5.14,5.14,0,0,0-3-.69,4.82,4.82,0,0,0-3.6,1.27,5.08,5.08,0,0,0-1.14,2.08H136a6.66,6.66,0,0,1,3.11-4.59,10.25,10.25,0,0,1,5-1.29,8.35,8.35,0,0,1,4.85,1.2,3.32,3.32,0,0,1,1.16,3.73l-2.18,10.27a1.12,1.12,0,0,0,0,.74c.08.19.33.29.74.29l.45,0c.18,0,.36,0,.56-.07l-.48,2.21a9.36,9.36,0,0,1-1.11.25,8.56,8.56,0,0,1-1,.05,2,2,0,0,1-2-1.1,3.65,3.65,0,0,1-.16-1.65,10.39,10.39,0,0,1-3.08,2.08,9.3,9.3,0,0,1-4,.89,4.6,4.6,0,0,1-3.74-1.51,4.18,4.18,0,0,1-.77-3.77,6.18,6.18,0,0,1,2.37-3.84,9.1,9.1,0,0,1,4.42-1.68Zm-5.94,8.85a7.91,7.91,0,0,0,3.23-.73,5.45,5.45,0,0,0,3.34-4l.5-2.41a6.53,6.53,0,0,1-1.53.58,12,12,0,0,1-1.76.33l-1.87.24a8.06,8.06,0,0,0-2.59.68,3.47,3.47,0,0,0-1.92,2.49,2,2,0,0,0,.51,2.05A2.91,2.91,0,0,0,139.14,28.63Z" transform="translate(-8.12 -6.13)"/><path class="cls-2" d="M155,12.75h2.85l-.65,3.08a9,9,0,0,1,2.17-2.19,5.45,5.45,0,0,1,3.42-1.29l.28,0,.67.07-.67,3.16c-.18,0-.34-.06-.48-.07h-.48A5.26,5.26,0,0,0,158.36,17a6.49,6.49,0,0,0-1.94,3.36l-2.16,10.25h-3Z" transform="translate(-8.12 -6.13)"/><path class="cls-2" d="M178.5,15.55A6.83,6.83,0,0,1,179,18.7a19.71,19.71,0,0,1-.57,3.92H165.4a6.74,6.74,0,0,0,.36,4.35c.57,1.1,1.69,1.64,3.37,1.64a5.88,5.88,0,0,0,4.06-1.54A7.08,7.08,0,0,0,174.77,25h2.94a7.89,7.89,0,0,1-1.24,2.18,10.25,10.25,0,0,1-1.88,2,9.08,9.08,0,0,1-3.77,1.79,10.91,10.91,0,0,1-2.51.27,6,6,0,0,1-5.12-2.42q-1.8-2.43-.87-6.78a12.88,12.88,0,0,1,3.81-7,9.55,9.55,0,0,1,6.66-2.68,7,7,0,0,1,3.49.9A4.87,4.87,0,0,1,178.5,15.55Zm-2.62,4.69a6.89,6.89,0,0,0-.18-3.11C175.19,15.69,174,15,172.06,15a5.59,5.59,0,0,0-3.78,1.49,7.25,7.25,0,0,0-2.3,3.78Z" transform="translate(-8.12 -6.13)"/></svg>